<?xml version="1.0" encoding="UTF-8" standalone="no"?>
<svg
   xmlns:dc="http://purl.org/dc/elements/1.1/"
   xmlns:cc="http://creativecommons.org/ns#"
   xmlns:rdf="http://www.w3.org/1999/02/22-rdf-syntax-ns#"
   xmlns:svg="http://www.w3.org/2000/svg"
   xmlns="http://www.w3.org/2000/svg"
   xmlns:sodipodi="http://sodipodi.sourceforge.net/DTD/sodipodi-0.dtd"
   xmlns:inkscape="http://www.inkscape.org/namespaces/inkscape"
   width="5.53in"
   height="2.31in"
   viewBox="0 0 398.38 166.05"
   version="1.1"
   id="svg6"
   sodipodi:docname="ADA-logo-2018-white-01.svg"
   inkscape:version="0.92.3 (2405546, 2018-03-11)">
  <metadata
     id="metadata12">
    <rdf:RDF>
      <cc:Work
         rdf:about="">
        <dc:format>image/svg+xml</dc:format>
        <dc:type
           rdf:resource="http://purl.org/dc/dcmitype/StillImage" />
      </cc:Work>
    </rdf:RDF>
  </metadata>
  <defs
     id="defs10" />
  <sodipodi:namedview
     pagecolor="#ffffff"
     bordercolor="#666666"
     borderopacity="1"
     objecttolerance="10"
     gridtolerance="10"
     guidetolerance="10"
     inkscape:pageopacity="0"
     inkscape:pageshadow="2"
     inkscape:window-width="1366"
     inkscape:window-height="705"
     id="namedview8"
     showgrid="false"
     inkscape:zoom="0.29290987"
     inkscape:cx="89.86822"
     inkscape:cy="183.31593"
     inkscape:window-x="-8"
     inkscape:window-y="-8"
     inkscape:window-maximized="1"
     inkscape:current-layer="svg6" />
  <title
     id="title2">ADA-logo-2018-white</title>
  <path
     d="M375.67,45.74a68.65,68.65,0,0,0-48.85-20.27h0A68.69,68.69,0,0,0,278,45.73a69.8,69.8,0,0,0-9.81,12.34l-.11-55.43-9.47,0h-1.11l.08,91.88a58.36,58.36,0,1,1-58.39-58.4h0a58.35,58.35,0,0,1,27.67,7v5.41a53.38,53.38,0,0,0-27.67-7.69h0a53.69,53.69,0,0,0,0,107.37h0a53.74,53.74,0,0,0,53.69-53.68V2.65H242.13V94.54a42.94,42.94,0,1,1-43-43h0A42.94,42.94,0,0,1,226.84,61.7v6.45a38.09,38.09,0,0,0-27.67-11.87h0a38.26,38.26,0,0,0,0,76.51h0a38.31,38.31,0,0,0,38.26-38.25V2.65H226.84V31.2a68.5,68.5,0,0,0-27.67-5.79h0a69.22,69.22,0,0,0-63.83,42.65,69.21,69.21,0,0,0-63.81-42.6h0a69.12,69.12,0,1,0,0,138.23h0a68.49,68.49,0,0,0,27.67-5.78v5.78h10.58V94.57A38.29,38.29,0,0,0,71.51,56.32h0a38.26,38.26,0,0,0,0,76.51h0A38.12,38.12,0,0,0,99.18,121v6.45a42.93,42.93,0,0,1-27.67,10.12h0a43,43,0,0,1,0-85.92h0a43,43,0,0,1,43,43v69.12h10.72V94.57A53.74,53.74,0,0,0,71.51,40.89h0a53.69,53.69,0,1,0,0,107.37h0a53.39,53.39,0,0,0,27.67-7.7V146a58.34,58.34,0,0,1-27.67,7h0a58.39,58.39,0,0,1,0-116.78h0A58.46,58.46,0,0,1,129.9,94.57l-.09,69.11,10.58,0,.09-32.73a69.12,69.12,0,0,0,58.68,32.67h0A69.41,69.41,0,0,0,263,121.13a69.37,69.37,0,0,0,63.83,42.57h0a68.32,68.32,0,0,0,27.67-5.78v5.79h10.57V94.59a38.31,38.31,0,0,0-38.25-38.26h0a38.26,38.26,0,0,0,0,76.51h0A38.1,38.1,0,0,0,354.49,121v6.45a42.89,42.89,0,0,1-27.67,10.13h0a43,43,0,1,1,43-43v69.12H380.5V94.59A53.76,53.76,0,0,0,326.82,40.9h0a53.69,53.69,0,0,0,0,107.37h0a53.41,53.41,0,0,0,27.67-7.69V146a58.34,58.34,0,0,1-27.67,7h0a58.36,58.36,0,1,1,58.4-58.39l-.1,69.11,10.58,0,.18-66.25c0-1,.06-1.92.06-2.89A68.64,68.64,0,0,0,375.67,45.74ZM199.16,122.06a27.53,27.53,0,0,1,0-55.06h0a27.53,27.53,0,0,1,0,55.06ZM91,114a27.38,27.38,0,0,1-19.46,8.07h0A27.55,27.55,0,1,1,91,114Zm235.84,8.09a27.53,27.53,0,0,1,0-55.06h0a27.53,27.53,0,0,1,0,55.06Z"
     fill="#fff"
     id="path4"
     style="fill:#ca252c;fill-opacity:1" />
</svg>
