<?xml version="1.0" encoding="UTF-8" standalone="no"?>
<svg
   xmlns="http://www.w3.org/2000/svg"
   width="64"
   height="64"
   viewBox="0 0 64 64">
  <g fill="#0000d8">
    <path d="M 17.777788,40.309957 c 0,-3.728276 2.81916,-6.729717 6.320986,-6.729717 3.501827,0 6.320986,3.001441 6.320986,6.729717 v 16.56525 c 0,3.728197 -2.819159,6.729717 -6.320986,6.729717 -3.501826,0 -6.320986,-3.00152 -6.320986,-6.729717 z" />
    <path d="m 40.309891,46.222212 c -3.728196,0 -6.729638,-2.81916 -6.729638,-6.320986 0,-3.501826 3.001442,-6.320986 6.729638,-6.320986 H 56.8753 c 3.728197,0 6.729638,2.81916 6.729638,6.320986 0,3.501826 -3.001441,6.320986 -6.729638,6.320986 z" />
    <path d="m 33.580253,7.1246997 c 0,-3.7281963 2.81916,-6.72963758 6.320987,-6.72963758 3.501826,0 6.320986,3.00144128 6.320986,6.72963758 V 23.69003 c 0,3.728275 -2.81916,6.729717 -6.320986,6.729717 -3.501827,0 -6.320987,-3.001442 -6.320987,-6.729717 z" />
    <path d="m 7.1247142,30.419747 c -3.7281967,0 -6.72963796,-2.81916 -6.72963796,-6.320987 0,-3.501826 3.00144126,-6.320986 6.72963796,-6.320986 H 23.690043 c 3.728276,0 6.729717,2.81916 6.729717,6.320986 0,3.501827 -3.001441,6.320987 -6.729717,6.320987 z" />
  </g>
</svg>
